# xmcd
# Track frame offsets:
# 150
# 17616
# 41307
# 67266
# 89692
# 111404
# 130280
# 152746
# 175297
#
# Disc length: 2579 seconds
# Revision: 0
# Processed by: cddbd v1.5.2PL0 Copyright (c) Steve Scherf et al.
# Submitted via: VisiTrax 2.11.2.271 - For more info visit www.synapsa.com
#
DISCID=7a0a1109
DTITLE=Peck, Jow - In the City Lights
DYEAR=2013
DGENRE=Country/Rock
TTITLE0=Peck, Joe - In the City Lights
TTITLE1=Peck, Joe - Change Me
TTITLE2=Peck, Joe - It's Time to Go
TTITLE3=Peck, Joe - Arielle's Song
TTITLE4=Peck, Joe - Your Eyes
TTITLE5=Peck, Joe - Hole in My Pocket
TTITLE6=Peck, Joe - Going Through the Motions
TTITLE7=Peck, Joe - Restless Fire
TTITLE8=Peck, Joe - World of My Own
EXTD=
EXTT0=
EXTT1=
EXTT2=
EXTT3=
EXTT4=
EXTT5=
EXTT6=
EXTT7=
EXTT8=
PLAYORDER=
